<?xml version="1.0" standalone="no"?>
<!DOCTYPE svg PUBLIC "-//W3C//DTD SVG 20010904//EN"
 "http://www.w3.org/TR/2001/REC-SVG-20010904/DTD/svg10.dtd">
<svg version="1.0" xmlns="http://www.w3.org/2000/svg"
 width="802.000000pt" height="208.000000pt" viewBox="0 0 802.000000 208.000000"
 preserveAspectRatio="xMidYMid meet">

<g transform="translate(0.000000,208.000000) scale(0.100000,-0.100000)"
fill="#000000" stroke="none">
<path d="M0 1040 l0 -1040 975 0 975 0 0 1040 0 1040 -975 0 -975 0 0 -1040z
m922 915 c-246 -132 -444 -315 -599 -552 -79 -121 -175 -328 -232 -498 l-50
-150 -1 623 0 622 483 0 482 0 -83 -45z m411 -114 c217 -98 406 -325 329 -394
-25 -22 -105 -23 -167 -2 -105 36 -234 126 -314 219 -76 87 -94 147 -60 190
21 27 26 28 83 24 38 -4 87 -17 129 -37z m563 -1788 c-6 -6 -946 -9 -946 -3 0
3 26 18 58 34 169 82 407 282 530 445 132 175 231 371 314 617 l43 129 3 -609
c1 -335 0 -611 -2 -613z"/>
<path d="M2832 1386 c-94 -31 -152 -108 -152 -202 1 -103 50 -162 188 -226 46
-21 94 -49 108 -63 28 -28 32 -79 9 -112 -36 -51 -145 -54 -237 -7 -68 35 -80
28 -76 -43 l3 -58 48 -24 c104 -52 279 -37 361 31 83 68 106 191 54 279 -30
51 -63 74 -198 142 -63 31 -87 49 -94 68 -33 96 80 139 208 78 58 -27 68 -19
64 52 -3 52 -4 55 -43 73 -52 25 -183 31 -243 12z"/>
<path d="M4703 1381 c-72 -25 -127 -63 -161 -113 -51 -76 -65 -124 -70 -245
-4 -98 -2 -122 18 -183 29 -89 87 -158 162 -190 105 -46 280 -35 351 21 23 18
27 28 27 74 0 30 -5 57 -11 61 -6 3 -32 -5 -57 -19 -132 -71 -265 -32 -306 90
-18 53 -21 189 -6 244 38 137 177 187 302 110 27 -17 53 -31 58 -31 27 0 27
99 0 133 -48 60 -202 85 -307 48z"/>
<path d="M3566 1374 c-14 -13 -16 -61 -16 -368 0 -260 3 -355 12 -364 12 -12
104 -17 132 -6 14 5 16 28 16 155 l0 149 38 0 c68 0 94 -26 145 -146 74 -173
62 -159 145 -162 59 -2 73 0 78 13 11 27 -96 265 -138 307 l-36 36 28 12 c35
15 86 67 99 103 31 82 0 195 -67 240 -57 39 -104 47 -269 47 -124 0 -154 -3
-167 -16z m287 -115 c50 -14 75 -61 61 -115 -14 -55 -51 -78 -134 -82 l-70 -4
0 106 0 106 53 0 c28 0 69 -5 90 -11z"/>
<path d="M5427 1373 c-15 -18 -17 -51 -17 -375 0 -400 -7 -368 80 -368 82 0
80 -4 80 141 l0 129 68 0 c184 0 295 98 295 260 0 102 -41 166 -133 208 -26
11 -78 17 -195 20 -148 4 -161 3 -178 -15z m315 -142 c32 -36 37 -90 13 -147
-17 -42 -63 -64 -135 -64 l-50 0 0 126 0 127 72 -5 c65 -5 75 -9 100 -37z"/>
<path d="M6506 1368 c-10 -17 -194 -531 -251 -704 -2 -6 2 -17 8 -23 15 -15
122 -14 135 2 5 6 20 45 33 85 l23 73 145 -3 144 -3 25 -75 c14 -41 30 -78 36
-82 20 -14 143 -9 149 5 6 15 -235 711 -254 733 -8 10 -35 14 -95 14 -76 0
-85 -2 -98 -22z m144 -284 c28 -81 50 -152 50 -156 0 -4 -48 -8 -106 -8 -81 0
-105 3 -101 13 2 6 26 78 53 159 26 81 50 146 51 144 2 -2 26 -70 53 -152z"/>
</g>
</svg>
